<svg xmlns="http://www.w3.org/2000/svg" xmlns:xlink="http://www.w3.org/1999/xlink" width="470" zoomAndPan="magnify" viewBox="0 0 352.5 187.499995" height="250" preserveAspectRatio="xMidYMid meet" version="1.0"><defs><g/><clipPath id="8aade09089"><path d="M 0.21875 0 L 351.78125 0 L 351.78125 187 L 0.21875 187 Z M 0.21875 0 " clip-rule="nonzero"/></clipPath><clipPath id="0d348a5dd3"><path d="M 333.050781 32.109375 L 195.015625 1.71875 C 184.625 -0.574219 167.566406 -0.574219 157.175781 1.71875 L 19.140625 32.109375 C 8.75 34.402344 0.21875 45.007812 0.21875 55.6875 L 0.21875 130.359375 C 0.21875 141.253906 8.75 152.078125 19.140625 154.441406 L 157.175781 185.546875 C 167.566406 187.910156 184.625 187.910156 195.015625 185.546875 L 333.050781 154.441406 C 343.445312 152.078125 351.972656 141.253906 351.972656 130.359375 L 351.972656 55.6875 C 351.972656 45.007812 343.445312 34.402344 333.050781 32.109375 " clip-rule="nonzero"/></clipPath><clipPath id="53c8580656"><path d="M 6.328125 6 L 346 6 L 346 181.960938 L 6.328125 181.960938 Z M 6.328125 6 " clip-rule="nonzero"/></clipPath><clipPath id="102da33094"><path d="M 327.597656 37.234375 L 194.359375 7.902344 C 184.328125 5.691406 167.863281 5.691406 157.832031 7.902344 L 24.59375 37.234375 C 14.5625 39.449219 6.328125 49.6875 6.328125 59.996094 L 6.328125 126.09375 C 6.328125 136.609375 14.5625 147.054688 24.59375 149.339844 L 157.832031 179.363281 C 167.863281 181.644531 184.328125 181.644531 194.359375 179.363281 L 327.597656 149.339844 C 337.628906 147.054688 345.863281 136.609375 345.863281 126.09375 L 345.863281 59.996094 C 345.863281 49.6875 337.628906 39.449219 327.597656 37.234375 " clip-rule="nonzero"/></clipPath><clipPath id="80feb1a8f2"><path d="M 26 67 L 82.210938 67 L 82.210938 119 L 26 119 Z M 26 67 " clip-rule="nonzero"/></clipPath></defs><g clip-path="url(#8aade09089)"><g clip-path="url(#0d348a5dd3)"><path fill="#906427" d="M 0.21875 0 L 352.117188 0 L 352.117188 187.058594 L 0.21875 187.058594 Z M 0.21875 0 " fill-opacity="1" fill-rule="nonzero"/></g></g><g clip-path="url(#53c8580656)"><g clip-path="url(#102da33094)"><path fill="#392c1e" d="M 6.328125 6.242188 L 346 6.242188 L 346 181.269531 L 6.328125 181.269531 Z M 6.328125 6.242188 " fill-opacity="1" fill-rule="nonzero"/></g></g><g fill="#906427" fill-opacity="1"><g transform="translate(90.312753, 96.021676)"><g><path d="M 27.574219 6.222656 C 28.855469 6.574219 30.265625 6.441406 31.371094 6.132812 C 32.515625 5.074219 31.941406 2.25 30.929688 2.117188 C 30 2.472656 29.03125 2.425781 28.238281 2.160156 C 25.238281 1.765625 22.765625 -1.367188 19.898438 -4.058594 C 24.929688 -8.734375 28.632812 -14.734375 28.898438 -21.398438 C 29.121094 -26.957031 24.929688 -30.664062 18.398438 -30.707031 C 10.148438 -30.707031 5.292969 -26.164062 4.984375 -20.296875 C 4.722656 -16.324219 6.707031 -12.75 10.984375 -11.558594 C 12.308594 -10.941406 14.382812 -13.148438 13.367188 -13.808594 C 10.675781 -14.914062 9.617188 -17.605469 9.882812 -20.515625 C 10.191406 -24.488281 13.191406 -27.488281 17.914062 -27.488281 C 21.839844 -27.488281 24.046875 -25.238281 23.867188 -21.046875 C 23.648438 -15.972656 21.308594 -10.808594 16.984375 -6.398438 C 15 -7.941406 12.925781 -9.089844 10.191406 -9.132812 C 6.574219 -9.175781 4.015625 -7.058594 3.925781 -4.28125 C 3.839844 -1.410156 6.175781 0.441406 10.542969 0.351562 C 12.707031 0.308594 14.734375 -0.441406 16.589844 -1.851562 C 19.589844 1.675781 23.074219 5.558594 27.574219 6.222656 Z M 10.457031 -2.648438 C 8.914062 -2.648438 8.292969 -3.484375 8.382812 -4.324219 C 8.425781 -5.25 9.265625 -6.222656 10.675781 -6.222656 C 12.089844 -6.222656 13.28125 -5.515625 14.515625 -4.324219 C 13.28125 -3.351562 11.914062 -2.648438 10.457031 -2.648438 Z M 10.457031 -2.648438 "/></g></g></g><g fill="#906427" fill-opacity="1"><g transform="translate(120.97125, 96.021676)"><g><path d="M 13.675781 -18.132812 C 12.839844 -15.175781 11.957031 -11.957031 11.03125 -9.175781 C 9.707031 -5.425781 6.925781 -2.824219 5.207031 -2.824219 C 3.574219 -2.824219 4.015625 -5.117188 4.632812 -7.632812 C 5.425781 -11.164062 6.574219 -15.089844 7.191406 -17.558594 C 7.191406 -18.75 3.132812 -19.148438 2.601562 -18.046875 C 1.589844 -14.117188 0.0429688 -9.792969 -0.75 -5.382812 C -1.324219 -2.292969 -0.441406 0.351562 3.042969 0.398438 C 6 0.484375 8.78125 -0.96875 11.339844 -5.207031 C 10.675781 -2.558594 11.605469 0.21875 14.03125 0.21875 C 18.617188 0.265625 21.882812 -5.867188 23.382812 -8.867188 C 23.648438 -9.398438 22.105469 -10.324219 21.839844 -9.75 C 20.25 -6.042969 17.605469 -2.78125 15.925781 -2.824219 C 13.675781 -2.824219 17.117188 -13.414062 18.265625 -17.515625 C 17.957031 -18.796875 14.207031 -19.105469 13.675781 -18.132812 Z M 13.675781 -18.132812 "/></g></g></g><g fill="#906427" fill-opacity="1"><g transform="translate(142.542485, 96.021676)"><g><path d="M 10.5 -18.664062 C 5.515625 -17.824219 0.351562 -12.75 -0.617188 -6.839844 C -1.410156 -1.898438 1.058594 0.441406 4.28125 0.398438 C 7.851562 0.308594 9.792969 -2.425781 11.339844 -5.117188 C 10.808594 -1.851562 12 0.175781 14.117188 0.175781 C 18.265625 0.175781 21.707031 -4.058594 24 -8.867188 C 24.265625 -9.398438 22.675781 -10.28125 22.457031 -9.75 C 20.867188 -5.910156 17.867188 -2.910156 16.234375 -2.867188 C 15.222656 -2.867188 14.957031 -3.882812 15.441406 -6.089844 C 15.839844 -8.25 16.632812 -10.898438 17.117188 -12.574219 C 16.941406 -13.5 13.675781 -14.425781 12.882812 -13.414062 C 11.382812 -7.765625 6.972656 -1.058594 4.808594 -3.175781 C 3.792969 -4.191406 4.058594 -7.191406 5.425781 -10.058594 C 6.792969 -12.972656 9.222656 -15.222656 11.78125 -15.574219 C 13.808594 -15.839844 16.28125 -15.222656 18.089844 -13.765625 C 18.796875 -13.414062 20.605469 -15.441406 20.164062 -16.148438 C 17.691406 -18.664062 13.414062 -19.148438 10.5 -18.664062 Z M 10.5 -18.664062 "/></g></g></g><g fill="#906427" fill-opacity="1"><g transform="translate(164.731298, 96.021676)"><g><path d="M 6.132812 -21.355469 C 7.898438 -21.355469 9.132812 -22.457031 9.308594 -24.046875 C 9.53125 -25.589844 8.558594 -26.691406 6.972656 -26.691406 C 5.339844 -26.738281 4.101562 -25.632812 3.839844 -24.046875 C 3.617188 -22.5 4.675781 -21.355469 6.132812 -21.355469 Z M 2.78125 0.398438 C 7.367188 0.308594 10.675781 -4.851562 12.53125 -8.824219 C 12.792969 -9.398438 11.25 -10.324219 10.984375 -9.75 C 9.484375 -6.132812 6.574219 -2.691406 4.542969 -2.691406 C 3.617188 -2.648438 3.660156 -3.839844 4.015625 -5.601562 C 4.675781 -8.601562 5.601562 -11.472656 7.324219 -17.605469 C 7.015625 -18.664062 3.398438 -19.191406 2.691406 -18.175781 C 1.148438 -12.839844 0.0898438 -9.265625 -0.882812 -5.117188 C -1.675781 -1.71875 -0.882812 0.484375 2.78125 0.398438 Z M 2.78125 0.398438 "/></g></g></g><g fill="#906427" fill-opacity="1"><g transform="translate(175.450742, 96.021676)"><g/></g></g><g fill="#906427" fill-opacity="1"><g transform="translate(183.8322, 96.021676)"><g><path d="M 9.175781 0.398438 C 14.648438 0.308594 17.25 -4.015625 19.808594 -10.191406 C 21.882812 -9.972656 24.132812 -9.707031 25.457031 -9.617188 C 24.617188 -6.351562 23.824219 -3.132812 23.472656 -0.792969 C 23.957031 0.441406 27.796875 0.441406 28.457031 -0.792969 C 28.808594 -3.308594 29.691406 -6.664062 30.398438 -9.707031 C 33.707031 -9.972656 36.972656 -11.03125 39.003906 -13.542969 C 39.488281 -14.164062 38.605469 -15.75 37.8125 -14.957031 C 36.222656 -13.28125 33.621094 -12.53125 30.839844 -12.355469 C 31.589844 -15.222656 33.265625 -22.058594 33.3125 -26.339844 C 33.3125 -30.929688 27.882812 -31.941406 24 -27.839844 C 20.914062 -24.574219 18.75 -19.414062 16.324219 -13.632812 C 10.058594 -14.164062 4.148438 -11.472656 3.042969 -6.222656 C 2.292969 -2.292969 4.367188 0.484375 9.175781 0.398438 Z M 26.074219 -12.441406 C 24.882812 -12.53125 22.722656 -12.792969 20.957031 -13.058594 C 22.722656 -17.734375 24.707031 -23.207031 27.179688 -26.164062 C 28.457031 -27.664062 29.515625 -27.265625 29.25 -25.589844 C 28.546875 -21.441406 27 -15.75 26.074219 -12.441406 Z M 9.308594 -2.734375 C 7.589844 -2.734375 7.324219 -4.457031 7.808594 -6.175781 C 8.78125 -9.222656 11.605469 -10.632812 15.089844 -10.542969 C 13.234375 -6 11.824219 -2.78125 9.308594 -2.734375 Z M 9.308594 -2.734375 "/></g></g></g><g fill="#906427" fill-opacity="1"><g transform="translate(220.445943, 96.021676)"><g><path d="M 13.722656 -18.796875 C 10.808594 -18.839844 7.808594 -15.972656 6.222656 -14.117188 C 6.617188 -15.398438 6.792969 -16.148438 7.191406 -17.558594 C 6.75 -18.925781 3.308594 -19.148438 2.601562 -18.175781 C 0.839844 -11.734375 -0.660156 -6.707031 -2.074219 -0.839844 C -1.984375 0.617188 2.382812 0.484375 2.867188 -0.484375 C 3.792969 -4.457031 4.28125 -6.707031 5.515625 -10.855469 C 7.148438 -13.058594 9.484375 -15.132812 11.03125 -15.175781 C 12.53125 -15.222656 12.308594 -13.765625 12 -12.441406 C 11.605469 -10.632812 10.367188 -5.824219 10.101562 -4.324219 C 9.574219 -1.457031 10.589844 0.484375 13.941406 0.398438 C 18.222656 0.351562 21.53125 -5.03125 23.296875 -8.867188 C 23.515625 -9.398438 21.972656 -10.28125 21.75 -9.75 C 20.117188 -5.957031 17.515625 -2.691406 15.707031 -2.691406 C 14.605469 -2.691406 14.824219 -4.367188 15.175781 -6 C 15.664062 -8.117188 16.589844 -10.589844 17.074219 -12.617188 C 17.914062 -16.191406 17.074219 -18.75 13.722656 -18.796875 Z M 13.722656 -18.796875 "/></g></g></g><g fill="#906427" fill-opacity="1"><g transform="translate(241.884832, 96.021676)"><g><path d="M 5.425781 0.398438 C 9.839844 0.351562 13.058594 -3.308594 15.441406 -8.824219 C 15.664062 -9.398438 14.164062 -10.28125 13.898438 -9.75 C 12.042969 -5.558594 8.914062 -2.648438 6.351562 -2.691406 C 4.191406 -2.734375 4.191406 -5.734375 5.117188 -9.792969 C 5.515625 -11.648438 6.175781 -13.984375 6.839844 -16.28125 L 10.984375 -16.28125 C 11.648438 -16.5 12.175781 -18.574219 11.339844 -19.191406 L 7.632812 -19.191406 C 8.648438 -22.546875 9.664062 -25.679688 10.632812 -28.371094 C 10.589844 -29.648438 6.574219 -30.132812 5.957031 -29.25 C 5.074219 -27 3.707031 -22.898438 2.558594 -19.191406 L 0.792969 -19.191406 C 0.0898438 -18.925781 -0.441406 -16.765625 0.441406 -16.28125 L 1.765625 -16.28125 C -0.265625 -8.558594 -2.292969 0.484375 5.425781 0.398438 Z M 5.425781 0.398438 "/></g></g></g><g fill="#906427" fill-opacity="1"><g transform="translate(255.471624, 96.021676)"><g><path d="M 6.132812 -21.355469 C 7.898438 -21.355469 9.132812 -22.457031 9.308594 -24.046875 C 9.53125 -25.589844 8.558594 -26.691406 6.972656 -26.691406 C 5.339844 -26.738281 4.101562 -25.632812 3.839844 -24.046875 C 3.617188 -22.5 4.675781 -21.355469 6.132812 -21.355469 Z M 2.78125 0.398438 C 7.367188 0.308594 10.675781 -4.851562 12.53125 -8.824219 C 12.792969 -9.398438 11.25 -10.324219 10.984375 -9.75 C 9.484375 -6.132812 6.574219 -2.691406 4.542969 -2.691406 C 3.617188 -2.648438 3.660156 -3.839844 4.015625 -5.601562 C 4.675781 -8.601562 5.601562 -11.472656 7.324219 -17.605469 C 7.015625 -18.664062 3.398438 -19.191406 2.691406 -18.175781 C 1.148438 -12.839844 0.0898438 -9.265625 -0.882812 -5.117188 C -1.675781 -1.71875 -0.882812 0.484375 2.78125 0.398438 Z M 2.78125 0.398438 "/></g></g></g><g fill="#906427" fill-opacity="1"><g transform="translate(266.191068, 96.021676)"><g><path d="M 11.074219 -18.796875 C 5.867188 -18.308594 0.484375 -13.234375 -0.617188 -6.484375 C -1.28125 -2.339844 0.660156 0.53125 4.015625 0.441406 C 6.664062 0.398438 9.132812 -1.898438 10.808594 -4.808594 C 8.339844 0.351562 7.414062 6.707031 6.222656 11.957031 C 6.175781 13.058594 10.457031 13.28125 10.984375 12.132812 L 11.558594 9.132812 C 12.707031 4.722656 15.265625 2.339844 17.605469 -0.175781 C 19.546875 -2.207031 22.058594 -4.632812 23.914062 -8.867188 C 24.132812 -9.441406 22.589844 -10.28125 22.367188 -9.75 C 20.117188 -4.589844 15.882812 -1.808594 13.234375 1.058594 C 14.164062 -2.734375 15.441406 -7.234375 16.898438 -12.53125 C 16.898438 -13.542969 13.191406 -14.382812 12.707031 -13.367188 C 12.089844 -11.164062 11.164062 -8.957031 10.234375 -7.324219 C 6.617188 -0.75 2.382812 -1.589844 4.898438 -8.648438 C 6.222656 -12.308594 8.824219 -15.574219 12.355469 -15.707031 C 14.25 -15.75 16.457031 -14.957031 18.175781 -13.5 C 18.972656 -13.324219 20.472656 -15.132812 20.164062 -15.839844 C 17.78125 -18.308594 13.722656 -19.058594 11.074219 -18.796875 Z M 11.074219 -18.796875 "/></g></g></g><g fill="#906427" fill-opacity="1"><g transform="translate(288.247557, 96.021676)"><g><path d="M 13.675781 -18.132812 C 12.839844 -15.175781 11.957031 -11.957031 11.03125 -9.175781 C 9.707031 -5.425781 6.925781 -2.824219 5.207031 -2.824219 C 3.574219 -2.824219 4.015625 -5.117188 4.632812 -7.632812 C 5.425781 -11.164062 6.574219 -15.089844 7.191406 -17.558594 C 7.191406 -18.75 3.132812 -19.148438 2.601562 -18.046875 C 1.589844 -14.117188 0.0429688 -9.792969 -0.75 -5.382812 C -1.324219 -2.292969 -0.441406 0.351562 3.042969 0.398438 C 6 0.484375 8.78125 -0.96875 11.339844 -5.207031 C 10.675781 -2.558594 11.605469 0.21875 14.03125 0.21875 C 18.617188 0.265625 21.882812 -5.867188 23.382812 -8.867188 C 23.648438 -9.398438 22.105469 -10.324219 21.839844 -9.75 C 20.25 -6.042969 17.605469 -2.78125 15.925781 -2.824219 C 13.675781 -2.824219 17.117188 -13.414062 18.265625 -17.515625 C 17.957031 -18.796875 14.207031 -19.105469 13.675781 -18.132812 Z M 13.675781 -18.132812 "/></g></g></g><g fill="#906427" fill-opacity="1"><g transform="translate(309.81878, 96.021676)"><g><path d="M 11.207031 -18.707031 C 6.042969 -18.882812 1.410156 -15.265625 0.21875 -9.484375 C -0.882812 -4.542969 1.5 0.21875 8.207031 0.441406 C 12.398438 0.574219 17.691406 -0.882812 21.265625 -8.867188 C 21.488281 -9.398438 19.941406 -10.28125 19.675781 -9.75 C 17.117188 -3.925781 12.441406 -2.382812 9.441406 -2.691406 C 6.351562 -3 4.722656 -4.808594 4.984375 -7.632812 C 10.101562 -6.441406 14.292969 -7.984375 15.925781 -11.292969 C 17.605469 -14.515625 16.148438 -18.53125 11.207031 -18.707031 Z M 10.632812 -15.574219 C 12.308594 -15.53125 12.355469 -13.941406 11.648438 -12.484375 C 10.765625 -10.542969 8.558594 -9.398438 5.292969 -9.882812 C 6.089844 -13.058594 8.558594 -15.707031 10.632812 -15.574219 Z M 10.632812 -15.574219 "/></g></g></g><g fill="#b6ac97" fill-opacity="1"><g transform="translate(102.29249, 122.234278)"><g><path d="M 0.90625 -12.484375 L 5.375 -12.484375 C 6.570312 -12.484375 7.546875 -12.160156 8.296875 -11.515625 C 9.054688 -10.878906 9.4375 -9.960938 9.4375 -8.765625 C 9.4375 -7.847656 9.207031 -7.078125 8.75 -6.453125 C 8.289062 -5.835938 7.664062 -5.40625 6.875 -5.15625 L 11.171875 0 L 7.5625 0 L 3.75 -4.9375 L 3.75 0 L 0.90625 0 Z M 3.75 -6.9375 L 4.078125 -6.9375 C 4.347656 -6.9375 4.570312 -6.941406 4.75 -6.953125 C 4.925781 -6.960938 5.128906 -7 5.359375 -7.0625 C 5.597656 -7.125 5.785156 -7.207031 5.921875 -7.3125 C 6.066406 -7.425781 6.1875 -7.585938 6.28125 -7.796875 C 6.382812 -8.015625 6.4375 -8.273438 6.4375 -8.578125 C 6.4375 -8.878906 6.382812 -9.132812 6.28125 -9.34375 C 6.1875 -9.5625 6.066406 -9.722656 5.921875 -9.828125 C 5.785156 -9.941406 5.597656 -10.023438 5.359375 -10.078125 C 5.128906 -10.140625 4.925781 -10.175781 4.75 -10.1875 C 4.570312 -10.195312 4.347656 -10.203125 4.078125 -10.203125 L 3.75 -10.203125 Z M 3.75 -6.9375 "/></g></g></g><g fill="#b6ac97" fill-opacity="1"><g transform="translate(125.220276, 122.234278)"><g><path d="M 8.046875 -12.484375 L 8.046875 -9.984375 L 3.75 -9.984375 L 3.75 -7.5 L 7.859375 -7.5 L 7.859375 -5 L 3.75 -5 L 3.75 -2.5 L 8.046875 -2.5 L 8.046875 0 L 0.90625 0 L 0.90625 -12.484375 Z M 8.046875 -12.484375 "/></g></g></g><g fill="#b6ac97" fill-opacity="1"><g transform="translate(146.09149, 122.234278)"><g><path d="M 5.5 -12.703125 C 6.175781 -12.703125 6.835938 -12.601562 7.484375 -12.40625 C 8.128906 -12.207031 8.609375 -12.015625 8.921875 -11.828125 L 9.375 -11.53125 L 8.234375 -9.25 C 8.140625 -9.3125 8.007812 -9.390625 7.84375 -9.484375 C 7.6875 -9.585938 7.382812 -9.71875 6.9375 -9.875 C 6.5 -10.039062 6.085938 -10.125 5.703125 -10.125 C 5.222656 -10.125 4.851562 -10.019531 4.59375 -9.8125 C 4.34375 -9.613281 4.21875 -9.34375 4.21875 -9 C 4.21875 -8.832031 4.273438 -8.671875 4.390625 -8.515625 C 4.515625 -8.367188 4.722656 -8.210938 5.015625 -8.046875 C 5.304688 -7.878906 5.5625 -7.742188 5.78125 -7.640625 C 6.007812 -7.546875 6.359375 -7.398438 6.828125 -7.203125 C 7.628906 -6.859375 8.3125 -6.390625 8.875 -5.796875 C 9.445312 -5.210938 9.734375 -4.546875 9.734375 -3.796875 C 9.734375 -3.078125 9.601562 -2.453125 9.34375 -1.921875 C 9.09375 -1.390625 8.742188 -0.972656 8.296875 -0.671875 C 7.847656 -0.367188 7.347656 -0.144531 6.796875 0 C 6.253906 0.15625 5.664062 0.234375 5.03125 0.234375 C 4.488281 0.234375 3.953125 0.175781 3.421875 0.0625 C 2.898438 -0.0507812 2.460938 -0.191406 2.109375 -0.359375 C 1.765625 -0.523438 1.445312 -0.6875 1.15625 -0.84375 C 0.875 -1.007812 0.671875 -1.144531 0.546875 -1.25 L 0.34375 -1.421875 L 1.765625 -3.8125 C 1.890625 -3.707031 2.054688 -3.578125 2.265625 -3.421875 C 2.484375 -3.265625 2.859375 -3.054688 3.390625 -2.796875 C 3.929688 -2.535156 4.410156 -2.40625 4.828125 -2.40625 C 6.023438 -2.40625 6.625 -2.8125 6.625 -3.625 C 6.625 -3.800781 6.582031 -3.960938 6.5 -4.109375 C 6.414062 -4.253906 6.265625 -4.398438 6.046875 -4.546875 C 5.828125 -4.691406 5.632812 -4.804688 5.46875 -4.890625 C 5.300781 -4.972656 5.023438 -5.101562 4.640625 -5.28125 C 4.265625 -5.457031 3.988281 -5.59375 3.8125 -5.6875 C 3.050781 -6.0625 2.460938 -6.523438 2.046875 -7.078125 C 1.640625 -7.640625 1.4375 -8.242188 1.4375 -8.890625 C 1.4375 -10.015625 1.847656 -10.929688 2.671875 -11.640625 C 3.503906 -12.347656 4.445312 -12.703125 5.5 -12.703125 Z M 5.5 -12.703125 "/></g></g></g><g fill="#b6ac97" fill-opacity="1"><g transform="translate(168.353921, 122.234278)"><g><path d="M 0.125 -9.984375 L 0.125 -12.484375 L 8.890625 -12.484375 L 8.890625 -9.984375 L 5.921875 -9.984375 L 5.921875 0 L 3.078125 0 L 3.078125 -9.984375 Z M 0.125 -9.984375 "/></g></g></g><g fill="#b6ac97" fill-opacity="1"><g transform="translate(189.467082, 122.234278)"><g><path d="M 7.25 -12.484375 L 12.28125 0 L 9.21875 0 L 8.296875 -2.5 L 3.546875 -2.5 L 2.625 0 L -0.421875 0 L 4.609375 -12.484375 Z M 7.328125 -4.984375 L 5.9375 -8.625 L 5.90625 -8.625 L 4.515625 -4.984375 Z M 7.328125 -4.984375 "/></g></g></g><g fill="#b6ac97" fill-opacity="1"><g transform="translate(213.423154, 122.234278)"><g><path d="M 10.5 -12.484375 L 10.5 -4.4375 C 10.5 -2.894531 10.082031 -1.726562 9.25 -0.9375 C 8.425781 -0.15625 7.21875 0.234375 5.625 0.234375 C 4.03125 0.234375 2.816406 -0.15625 1.984375 -0.9375 C 1.160156 -1.726562 0.75 -2.894531 0.75 -4.4375 L 0.75 -12.484375 L 3.59375 -12.484375 L 3.59375 -5.265625 C 3.59375 -4.253906 3.75 -3.550781 4.0625 -3.15625 C 4.382812 -2.769531 4.90625 -2.578125 5.625 -2.578125 C 6.34375 -2.578125 6.859375 -2.769531 7.171875 -3.15625 C 7.492188 -3.550781 7.65625 -4.253906 7.65625 -5.265625 L 7.65625 -12.484375 Z M 10.5 -12.484375 "/></g></g></g><g fill="#b6ac97" fill-opacity="1"><g transform="translate(236.774358, 122.234278)"><g><path d="M 0.90625 -12.484375 L 5.375 -12.484375 C 6.570312 -12.484375 7.546875 -12.160156 8.296875 -11.515625 C 9.054688 -10.878906 9.4375 -9.960938 9.4375 -8.765625 C 9.4375 -7.847656 9.207031 -7.078125 8.75 -6.453125 C 8.289062 -5.835938 7.664062 -5.40625 6.875 -5.15625 L 11.171875 0 L 7.5625 0 L 3.75 -4.9375 L 3.75 0 L 0.90625 0 Z M 3.75 -6.9375 L 4.078125 -6.9375 C 4.347656 -6.9375 4.570312 -6.941406 4.75 -6.953125 C 4.925781 -6.960938 5.128906 -7 5.359375 -7.0625 C 5.597656 -7.125 5.785156 -7.207031 5.921875 -7.3125 C 6.066406 -7.425781 6.1875 -7.585938 6.28125 -7.796875 C 6.382812 -8.015625 6.4375 -8.273438 6.4375 -8.578125 C 6.4375 -8.878906 6.382812 -9.132812 6.28125 -9.34375 C 6.1875 -9.5625 6.066406 -9.722656 5.921875 -9.828125 C 5.785156 -9.941406 5.597656 -10.023438 5.359375 -10.078125 C 5.128906 -10.140625 4.925781 -10.175781 4.75 -10.1875 C 4.570312 -10.195312 4.347656 -10.203125 4.078125 -10.203125 L 3.75 -10.203125 Z M 3.75 -6.9375 "/></g></g></g><g fill="#b6ac97" fill-opacity="1"><g transform="translate(259.702144, 122.234278)"><g><path d="M 7.25 -12.484375 L 12.28125 0 L 9.21875 0 L 8.296875 -2.5 L 3.546875 -2.5 L 2.625 0 L -0.421875 0 L 4.609375 -12.484375 Z M 7.328125 -4.984375 L 5.9375 -8.625 L 5.90625 -8.625 L 4.515625 -4.984375 Z M 7.328125 -4.984375 "/></g></g></g><g fill="#b6ac97" fill-opacity="1"><g transform="translate(283.658216, 122.234278)"><g><path d="M 3.75 -7.75 L 3.75 0 L 0.90625 0 L 0.90625 -12.484375 L 3.75 -12.484375 L 8.71875 -4.734375 L 8.75 -4.734375 L 8.75 -12.484375 L 11.578125 -12.484375 L 11.578125 0 L 8.75 0 L 3.78125 -7.75 Z M 3.75 -7.75 "/></g></g></g><g fill="#b6ac97" fill-opacity="1"><g transform="translate(308.249398, 122.234278)"><g><path d="M 0.125 -9.984375 L 0.125 -12.484375 L 8.890625 -12.484375 L 8.890625 -9.984375 L 5.921875 -9.984375 L 5.921875 0 L 3.078125 0 L 3.078125 -9.984375 Z M 0.125 -9.984375 "/></g></g></g><g clip-path="url(#80feb1a8f2)"><path fill="#b6ac97" d="M 33.425781 67.375 C 32.792969 67.375 32.1875 67.648438 31.765625 68.125 L 31.753906 68.136719 C 31.511719 68.421875 31.347656 68.75 31.273438 69.089844 C 30.839844 69.1875 30.445312 69.414062 30.140625 69.746094 C 29.839844 70.074219 29.65625 70.46875 29.585938 70.878906 C 29.144531 70.953125 28.738281 71.15625 28.410156 71.472656 C 28.097656 71.773438 27.894531 72.148438 27.796875 72.542969 C 27.453125 72.625 27.128906 72.792969 26.859375 73.03125 C 25.96875 73.8125 25.859375 75.183594 26.617188 76.097656 L 37.152344 88.796875 L 37.171875 88.824219 C 38.585938 90.460938 40.515625 91.402344 42.613281 91.476562 C 42.703125 91.480469 42.792969 91.480469 42.882812 91.480469 C 43.980469 91.480469 45.046875 91.238281 46.03125 90.773438 C 47.214844 91.996094 48.5 93.347656 50 94.941406 C 50.257812 95.21875 50.515625 95.496094 50.777344 95.777344 C 50.128906 96.367188 49.492188 96.945312 48.871094 97.503906 C 46.441406 99.691406 44 101.84375 41.613281 103.898438 C 38.753906 106.359375 36.390625 108.316406 34.175781 110.0625 L 34.167969 110.070312 C 33.871094 110.308594 33.597656 110.582031 33.375 110.867188 C 31.726562 112.957031 32.085938 116.003906 34.175781 117.652344 C 35.023438 118.320312 36.089844 118.691406 37.167969 118.691406 C 38.65625 118.691406 40.042969 118.019531 40.964844 116.847656 C 42.710938 114.632812 44.613281 112.339844 47.128906 109.410156 C 49.191406 107.015625 51.34375 104.574219 53.527344 102.15625 C 54.027344 101.601562 54.539062 101.035156 55.070312 100.449219 C 55.585938 101.015625 56.074219 101.554688 56.535156 102.066406 C 58.726562 104.496094 60.878906 106.9375 62.933594 109.320312 C 65.445312 112.246094 67.347656 114.542969 69.097656 116.761719 C 69.335938 117.058594 69.613281 117.335938 69.902344 117.5625 C 70.75 118.230469 71.808594 118.601562 72.890625 118.601562 C 74.382812 118.601562 75.761719 117.929688 76.683594 116.761719 C 78.335938 114.667969 77.976562 111.625 75.886719 109.976562 C 73.671875 108.230469 71.308594 106.269531 68.445312 103.808594 C 66.050781 101.75 63.613281 99.601562 61.1875 97.414062 C 60.605469 96.886719 60.007812 96.34375 59.375 95.769531 C 59.605469 95.523438 59.832031 95.277344 60.0625 95.03125 C 61.683594 93.304688 63.058594 91.859375 64.320312 90.558594 C 65.199219 90.839844 66.199219 90.984375 67.273438 90.984375 C 71.070312 90.984375 75.03125 89.289062 77.867188 86.457031 C 80.183594 84.136719 81.742188 81.109375 82.246094 77.929688 C 82.746094 74.8125 82.113281 72.023438 80.558594 70.46875 C 79.386719 69.296875 77.476562 68.652344 75.179688 68.652344 C 71.359375 68.652344 67.398438 70.339844 64.574219 73.160156 C 62.53125 75.203125 61.074219 77.960938 60.472656 80.914062 C 60.050781 82.980469 60.078125 85.027344 60.527344 86.644531 C 59.214844 87.925781 57.777344 89.289062 55.996094 90.960938 C 55.691406 91.246094 55.386719 91.535156 55.078125 91.820312 C 54.738281 91.503906 54.402344 91.191406 54.066406 90.875 C 52.414062 89.324219 51.070312 88.046875 49.839844 86.855469 C 50.277344 85.84375 50.484375 84.757812 50.4375 83.644531 C 50.355469 81.546875 49.398438 79.621094 47.746094 78.210938 L 47.703125 78.179688 L 34.804688 67.855469 C 34.414062 67.542969 33.925781 67.375 33.425781 67.375 Z M 33.425781 69.144531 C 33.519531 69.144531 33.617188 69.175781 33.699219 69.242188 L 46.597656 79.5625 C 47.875 80.648438 48.605469 82.121094 48.667969 83.714844 C 48.71875 84.957031 48.351562 86.15625 47.632812 87.179688 C 49.351562 88.863281 51.097656 90.519531 52.851562 92.167969 C 53.589844 92.859375 54.335938 93.542969 55.078125 94.230469 C 55.789062 93.574219 56.503906 92.917969 57.207031 92.253906 C 59.019531 90.558594 60.820312 88.847656 62.589844 87.109375 C 61.25 84.464844 61.832031 78.410156 65.828125 74.414062 C 68.597656 71.644531 72.265625 70.425781 75.179688 70.425781 C 76.960938 70.425781 78.464844 70.882812 79.304688 71.722656 C 81.609375 74.027344 81.078125 80.734375 76.613281 85.199219 C 73.839844 87.972656 70.1875 89.210938 67.273438 89.210938 C 65.941406 89.210938 64.761719 88.953125 63.894531 88.460938 C 62.164062 90.222656 60.464844 92.015625 58.773438 93.820312 C 58.132812 94.5 57.5 95.1875 56.863281 95.875 C 57.90625 96.828125 58.949219 97.78125 60.003906 98.730469 C 62.402344 100.898438 64.832031 103.039062 67.289062 105.152344 C 69.746094 107.265625 72.230469 109.351562 74.785156 111.367188 C 76.113281 112.414062 76.339844 114.335938 75.292969 115.664062 C 74.691406 116.429688 73.792969 116.828125 72.890625 116.828125 C 72.226562 116.828125 71.558594 116.613281 70.996094 116.171875 C 70.808594 116.023438 70.632812 115.84375 70.492188 115.664062 C 68.472656 113.109375 66.386719 110.625 64.273438 108.167969 C 62.160156 105.710938 60.019531 103.28125 57.851562 100.878906 C 56.929688 99.855469 56 98.835938 55.070312 97.816406 C 54.113281 98.867188 53.160156 99.914062 52.210938 100.96875 C 50.042969 103.371094 47.898438 105.800781 45.785156 108.253906 C 43.675781 110.710938 41.585938 113.195312 39.570312 115.753906 C 38.96875 116.519531 38.070312 116.917969 37.167969 116.917969 C 36.503906 116.917969 35.835938 116.703125 35.273438 116.261719 C 33.945312 115.214844 33.722656 113.289062 34.765625 111.960938 C 34.914062 111.773438 35.09375 111.597656 35.273438 111.457031 C 37.828125 109.441406 40.316406 107.351562 42.769531 105.242188 C 45.226562 103.128906 47.65625 100.984375 50.058594 98.816406 C 51.136719 97.84375 52.214844 96.863281 53.285156 95.882812 C 52.621094 95.164062 51.960938 94.441406 51.289062 93.730469 C 49.648438 91.980469 48 90.242188 46.324219 88.53125 C 45.316406 89.292969 44.128906 89.710938 42.882812 89.710938 C 42.8125 89.710938 42.746094 89.707031 42.679688 89.707031 C 41.078125 89.648438 39.601562 88.925781 38.511719 87.667969 L 27.980469 74.96875 C 27.832031 74.785156 27.847656 74.519531 28.027344 74.363281 C 28.109375 74.289062 28.214844 74.253906 28.316406 74.253906 C 28.429688 74.253906 28.542969 74.296875 28.628906 74.386719 L 39.472656 85.59375 C 39.5625 85.691406 39.664062 85.746094 39.765625 85.746094 L 39.777344 85.746094 C 39.832031 85.746094 39.90625 85.730469 39.972656 85.664062 C 40.109375 85.527344 40.09375 85.269531 39.933594 85.101562 L 29.621094 73.34375 C 29.46875 73.171875 29.472656 72.910156 29.644531 72.746094 C 29.726562 72.664062 29.835938 72.621094 29.949219 72.621094 C 30.054688 72.621094 30.160156 72.660156 30.242188 72.734375 L 41.746094 83.285156 C 41.847656 83.386719 41.957031 83.433594 42.066406 83.433594 C 42.128906 83.433594 42.21875 83.421875 42.289062 83.347656 C 42.363281 83.277344 42.375 83.1875 42.375 83.128906 C 42.375 83.019531 42.324219 82.90625 42.242188 82.828125 L 31.449219 71.542969 C 31.289062 71.375 31.289062 71.113281 31.449219 70.945312 C 31.53125 70.851562 31.644531 70.804688 31.761719 70.804688 C 31.863281 70.804688 31.960938 70.839844 32.042969 70.910156 L 44.023438 80.980469 C 44.125 81.074219 44.25 81.121094 44.363281 81.121094 C 44.460938 81.121094 44.546875 81.089844 44.609375 81.027344 C 44.679688 80.960938 44.691406 80.882812 44.6875 80.828125 C 44.683594 80.726562 44.636719 80.625 44.546875 80.546875 L 33.128906 69.898438 C 32.957031 69.738281 32.945312 69.472656 33.09375 69.296875 C 33.183594 69.199219 33.304688 69.144531 33.425781 69.144531 " fill-opacity="1" fill-rule="nonzero"/></g></svg>